<svg width="513" height="111" viewBox="0 0 513 111" fill="none" xmlns="http://www.w3.org/2000/svg">
<circle cx="55.5" cy="55.5" r="55.5" fill="#EBB6DF"/>
<circle cx="55.5001" cy="55.5" r="48.9059" fill="#9AF1E1" fill-opacity="0.19"/>
<mask id="mask0" mask-type="alpha" maskUnits="userSpaceOnUse" x="12" y="12" width="87" height="87">
<circle cx="55.5" cy="55.5" r="43.4109" fill="#C4C4C4"/>
</mask>
<g mask="url(#mask0)">
<g filter="url(#filter0_f)">
<ellipse cx="29.1238" cy="60.9951" rx="44.5099" ry="43.4109" fill="#D53DAA"/>
<ellipse cx="75.2821" cy="43.4109" rx="44.5099" ry="43.4109" fill="#FFB78E" fill-opacity="0.54"/>
<ellipse cx="56.599" cy="98.3614" rx="44.5099" ry="43.4109" fill="#61A4F3"/>
</g>
</g>
<path d="M148.197 84.3226L156.365 32.1067H165.353C172.058 32.1067 176.838 32.2969 179.691 32.6774C182.568 33.034 184.898 33.6641 186.682 34.5677C190.557 36.5175 193.506 39.3827 195.527 43.1633C197.572 46.9202 198.594 51.3904 198.594 56.574C198.594 61.5911 197.679 65.9781 195.848 69.7349C194.041 73.4918 191.283 76.678 187.573 79.2936C184.958 81.1007 181.855 82.3966 178.264 83.1812C174.674 83.9421 168.67 84.3226 160.253 84.3226H158.291H148.197ZM164.033 72.6953C165.008 72.7666 165.722 72.8142 166.173 72.8379C166.649 72.8379 167.089 72.8379 167.493 72.8379C173.081 72.8379 177.325 71.435 180.226 68.6293C183.127 65.8235 184.577 61.71 184.577 56.2886C184.577 51.866 183.519 48.656 181.403 46.6587C179.287 44.6376 175.863 43.627 171.131 43.627H168.492L164.033 72.6953ZM234.582 43.6983C230.326 43.6983 226.759 45.232 223.882 48.2993C221.005 51.3666 219.566 55.1711 219.566 59.7126C219.566 63.7311 220.708 66.9411 222.99 69.3426C225.297 71.7442 228.364 72.9449 232.192 72.9449C236.377 72.9449 239.932 71.3637 242.857 68.2013C245.781 65.0151 247.244 61.1393 247.244 56.574C247.244 52.8171 246.055 49.7379 243.677 47.3363C241.299 44.911 238.267 43.6983 234.582 43.6983ZM231.372 85.7136C227.639 85.7136 224.239 85.2023 221.171 84.1799C218.128 83.1575 215.417 81.6238 213.039 79.5789C210.543 77.3914 208.593 74.6926 207.19 71.4826C205.787 68.2726 205.086 64.8605 205.086 61.2463C205.086 57.3467 205.68 53.7088 206.869 50.3323C208.082 46.9321 209.877 43.8529 212.255 41.0947C215.037 37.8133 218.425 35.3048 222.42 33.569C226.438 31.8095 230.789 30.9297 235.474 30.9297C243.32 30.9297 249.657 33.1886 254.484 37.7063C259.335 42.2241 261.76 48.0972 261.76 55.3256C261.76 59.2014 261.142 62.8513 259.905 66.2753C258.693 69.6755 256.909 72.7428 254.555 75.4773C251.678 78.8299 248.278 81.3741 244.355 83.1099C240.431 84.8457 236.104 85.7136 231.372 85.7136ZM272.281 84.3226L278.63 44.2333H266.932L268.929 32.1067H305.808L303.811 44.2333H292.647L286.298 84.3226H272.281ZM312.157 84.3226L318.505 44.2333H306.807L308.804 32.1067H345.683L343.686 44.2333H332.522L326.174 84.3226H312.157ZM335.162 84.3226L361.305 32.1067H378.782L389.874 84.3226H375.715L373.61 74.4786H355.349L350.356 84.3226H335.162ZM360.592 62.8513H371.613L369.223 50.6533C368.985 49.4407 368.807 48.3588 368.688 47.4077C368.569 46.4566 368.498 45.5649 368.474 44.7327C367.975 46.1593 367.511 47.4195 367.083 48.5133C366.679 49.5833 366.358 50.3799 366.12 50.903L360.592 62.8513ZM392.728 84.3226L400.967 32.1067H414.948L411.417 53.9346L431.283 32.1067H449.33L423.615 57.8936L441.377 84.3226H424.863L410.24 61.3176L406.602 84.3226H392.728ZM444.658 84.3226L452.933 32.1067H467.164L458.889 84.3226H444.658ZM477.578 84.3226L483.927 44.2333H472.228L474.226 32.1067H511.105L509.108 44.2333H497.944L491.595 84.3226H477.578Z" fill="white"/>
<defs>
<filter id="filter0_f" x="-59.3465" y="-43.9604" width="223.099" height="229.693" filterUnits="userSpaceOnUse" color-interpolation-filters="sRGB">
<feFlood flood-opacity="0" result="BackgroundImageFix"/>
<feBlend mode="normal" in="SourceGraphic" in2="BackgroundImageFix" result="shape"/>
<feGaussianBlur stdDeviation="21.9802" result="effect1_foregroundBlur"/>
</filter>
</defs>
</svg>
